<svg width="168" height="35" viewBox="0 0 168 35" fill="none" xmlns="http://www.w3.org/2000/svg">
<path d="M0.23 1.976H17.298V6.736H5.16V12.074H15.904V16.834H5.16V22.24H17.774V27H0.23V1.976ZM28.8245 16.868L31.6465 12.142H36.3725L30.4905 20.302L28.8245 16.868ZM37.1885 27H31.4425L19.9845 12.142H25.8325L37.1885 27ZM28.2125 22.24L24.8805 27H20.1545L26.0365 19.044L28.2125 22.24ZM52.271 25.674C51.6137 26.1953 50.7863 26.6147 49.789 26.932C48.8143 27.2493 47.851 27.408 46.899 27.408C45.199 27.408 43.7143 27.102 42.445 26.49C41.1983 25.8553 40.2237 24.96 39.521 23.804C38.841 22.6253 38.501 21.2087 38.501 19.554C38.501 17.8993 38.875 16.494 39.623 15.338C40.371 14.1593 41.3457 13.264 42.547 12.652C43.771 12.04 45.0517 11.734 46.389 11.734C47.7263 11.734 48.8823 11.9153 49.857 12.278C50.8543 12.6407 51.7043 13.1167 52.407 13.706L50.095 16.766C49.7777 16.5167 49.3357 16.2673 48.769 16.018C48.225 15.746 47.579 15.61 46.831 15.61C46.1737 15.61 45.573 15.78 45.029 16.12C44.485 16.46 44.0543 16.9247 43.737 17.514C43.4197 18.1033 43.261 18.7833 43.261 19.554C43.261 20.2793 43.431 20.948 43.771 21.56C44.111 22.172 44.5757 22.6593 45.165 23.022C45.777 23.362 46.491 23.532 47.307 23.532C47.8283 23.532 48.3043 23.464 48.735 23.328C49.1883 23.1693 49.5737 22.954 49.891 22.682L52.271 25.674ZM55.9265 27V0.173999H60.5845V15.134L60.5505 14.556C61.0718 13.6267 61.8085 12.8787 62.7605 12.312C63.7125 11.7227 64.8798 11.428 66.2625 11.428C67.6678 11.428 68.8352 11.8473 69.7645 12.686C70.7165 13.502 71.2038 14.5673 71.2265 15.882V27H66.4665V17.65C66.4438 16.9927 66.2625 16.4713 65.9225 16.086C65.6052 15.678 65.0612 15.474 64.2905 15.474C63.5652 15.474 62.9305 15.712 62.3865 16.188C61.8425 16.664 61.4232 17.31 61.1285 18.126C60.8338 18.942 60.6865 19.8827 60.6865 20.948V27H55.9265ZM82.37 27.408C80.9873 27.408 79.7293 27.136 78.596 26.592C77.4853 26.0253 76.6013 25.164 75.944 24.008C75.2867 22.852 74.958 21.3787 74.958 19.588C74.958 17.9107 75.298 16.46 75.978 15.236C76.658 14.012 77.5533 13.0713 78.664 12.414C79.7747 11.734 80.9533 11.394 82.2 11.394C83.6733 11.394 84.784 11.6433 85.532 12.142C86.3027 12.618 86.9373 13.1507 87.436 13.74L87.232 14.318L87.674 12.142H92.094V27H87.334V23.77L87.708 24.79C87.6627 24.79 87.5267 24.926 87.3 25.198C87.0733 25.4473 86.7333 25.7533 86.28 26.116C85.8493 26.456 85.3053 26.7507 84.648 27C84.0133 27.272 83.254 27.408 82.37 27.408ZM83.73 23.532C84.2967 23.532 84.8067 23.4527 85.26 23.294C85.7133 23.1127 86.11 22.8633 86.45 22.546C86.79 22.206 87.0847 21.7867 87.334 21.288V17.65C87.1527 17.1513 86.8807 16.732 86.518 16.392C86.1553 16.0293 85.7247 15.7573 85.226 15.576C84.7273 15.372 84.172 15.27 83.56 15.27C82.88 15.27 82.2453 15.4513 81.656 15.814C81.0893 16.154 80.636 16.63 80.296 17.242C79.956 17.854 79.786 18.5567 79.786 19.35C79.786 20.1433 79.9673 20.8573 80.33 21.492C80.6927 22.1267 81.1687 22.6253 81.758 22.988C82.37 23.3507 83.0273 23.532 83.73 23.532ZM101.317 12.142L101.691 14.794L101.623 14.556C102.144 13.6267 102.881 12.8787 103.833 12.312C104.785 11.7227 105.952 11.428 107.335 11.428C108.74 11.428 109.907 11.8473 110.837 12.686C111.789 13.502 112.276 14.5673 112.299 15.882V27H107.539V17.65C107.516 16.9927 107.335 16.4713 106.995 16.086C106.677 15.678 106.133 15.474 105.363 15.474C104.637 15.474 104.003 15.712 103.459 16.188C102.915 16.664 102.495 17.31 102.201 18.126C101.906 18.942 101.759 19.8827 101.759 20.948V27H96.9988V12.142H101.317ZM124.87 34.48C123.533 34.48 122.4 34.3213 121.47 34.004C120.564 33.6867 119.793 33.3013 119.158 32.848C118.524 32.3947 117.957 31.964 117.458 31.556L120.246 28.292C120.768 28.768 121.368 29.2213 122.048 29.652C122.751 30.1053 123.669 30.332 124.802 30.332C125.55 30.332 126.242 30.196 126.876 29.924C127.534 29.6747 128.055 29.3007 128.44 28.802C128.848 28.3033 129.052 27.68 129.052 26.932V23.668L129.222 24.518C128.86 25.2887 128.202 25.9687 127.25 26.558C126.298 27.1247 125.052 27.408 123.51 27.408C122.173 27.408 120.926 27.068 119.77 26.388C118.637 25.6853 117.73 24.7447 117.05 23.566C116.37 22.3647 116.03 21.0047 116.03 19.486C116.03 17.922 116.393 16.5393 117.118 15.338C117.844 14.114 118.784 13.1507 119.94 12.448C121.096 11.7453 122.32 11.394 123.612 11.394C124.904 11.394 126.015 11.5867 126.944 11.972C127.896 12.3347 128.61 12.788 129.086 13.332L128.916 13.774L129.426 12.142H133.812V27C133.812 28.4507 133.404 29.7313 132.588 30.842C131.772 31.9753 130.684 32.8593 129.324 33.494C127.987 34.1513 126.502 34.48 124.87 34.48ZM120.824 19.35C120.824 20.1433 121.006 20.8573 121.368 21.492C121.731 22.1267 122.218 22.6253 122.83 22.988C123.465 23.3507 124.168 23.532 124.938 23.532C125.596 23.532 126.174 23.4527 126.672 23.294C127.194 23.1127 127.647 22.8633 128.032 22.546C128.44 22.206 128.78 21.7867 129.052 21.288V17.65C128.848 17.1513 128.542 16.732 128.134 16.392C127.726 16.0293 127.25 15.7573 126.706 15.576C126.185 15.372 125.596 15.27 124.938 15.27C124.168 15.27 123.465 15.4513 122.83 15.814C122.218 16.154 121.731 16.63 121.368 17.242C121.006 17.854 120.824 18.5567 120.824 19.35ZM146.012 27.408C144.199 27.408 142.657 27.068 141.388 26.388C140.141 25.708 139.189 24.7673 138.532 23.566C137.875 22.3647 137.546 20.982 137.546 19.418C137.546 17.922 137.931 16.5733 138.702 15.372C139.473 14.1707 140.504 13.2187 141.796 12.516C143.088 11.7907 144.527 11.428 146.114 11.428C148.245 11.428 149.99 12.0513 151.35 13.298C152.733 14.522 153.628 16.3013 154.036 18.636L142.476 22.308L141.422 19.724L149.786 16.902L148.8 17.344C148.619 16.7547 148.29 16.2447 147.814 15.814C147.361 15.3607 146.669 15.134 145.74 15.134C145.037 15.134 144.414 15.304 143.87 15.644C143.349 15.9613 142.941 16.426 142.646 17.038C142.374 17.6273 142.238 18.33 142.238 19.146C142.238 20.0753 142.408 20.8573 142.748 21.492C143.088 22.104 143.553 22.5687 144.142 22.886C144.731 23.2033 145.389 23.362 146.114 23.362C146.635 23.362 147.134 23.2713 147.61 23.09C148.109 22.9087 148.596 22.6707 149.072 22.376L151.18 25.912C150.387 26.3653 149.525 26.728 148.596 27C147.689 27.272 146.828 27.408 146.012 27.408ZM161.779 12.142L162.221 16.222L162.119 15.61C162.55 14.726 163.139 13.978 163.887 13.366C164.635 12.7313 165.372 12.244 166.097 11.904C166.845 11.564 167.412 11.394 167.797 11.394L167.559 16.154C166.448 16.018 165.496 16.1993 164.703 16.698C163.91 17.1967 163.298 17.854 162.867 18.67C162.436 19.486 162.221 20.3247 162.221 21.186V27H157.495V12.142H161.779Z" fill="#0D0E43"/>
</svg>
